<svg width="17" height="18" viewBox="0 0 17 18" fill="none" xmlns="http://www.w3.org/2000/svg">
<path d="M15.5833 12.6901V14.9401C15.5841 15.1489 15.5437 15.3557 15.4647 15.5471C15.3857 15.7385 15.2697 15.9103 15.1244 16.0515C14.979 16.1927 14.8074 16.3002 14.6205 16.3671C14.4336 16.434 14.2356 16.4589 14.0392 16.4401C11.8595 16.1893 9.76578 15.4007 7.92624 14.1376C6.21479 12.9861 4.76377 11.4497 3.67624 9.63757C2.47914 7.68098 1.73417 5.45332 1.50166 3.13507C1.48396 2.92767 1.50724 2.71864 1.57001 2.52129C1.63279 2.32394 1.73369 2.14259 1.86629 1.98879C1.99888 1.83499 2.16027 1.7121 2.34018 1.62796C2.52009 1.54382 2.71457 1.50027 2.91124 1.50007H5.03624C5.38 1.49649 5.71326 1.62538 5.97391 1.86272C6.23455 2.10006 6.4048 2.42966 6.45291 2.79007C6.5426 3.51012 6.70894 4.21712 6.94874 4.89757C7.04404 5.16602 7.06467 5.45776 7.00818 5.73823C6.95168 6.01871 6.82044 6.27616 6.62999 6.48007L5.73041 7.43257C6.73876 9.31023 8.20707 10.8649 9.98041 11.9326L10.88 10.9801C11.0726 10.7784 11.3157 10.6395 11.5806 10.5796C11.8455 10.5198 12.121 10.5417 12.3746 10.6426C13.0172 10.8965 13.6849 11.0726 14.365 11.1676C14.7091 11.219 15.0233 11.4025 15.248 11.6832C15.4726 11.9639 15.5919 12.3223 15.5833 12.6901Z" stroke="white" stroke-width="2" stroke-linecap="round" stroke-linejoin="round"/>
</svg>
