<svg width="24" height="24" viewBox="0 0 24 24" fill="none" xmlns="http://www.w3.org/2000/svg">
<path fill-rule="evenodd" clip-rule="evenodd" d="M16 1C16 0.447715 16.4477 0 17 0H21C21.5523 0 22 0.447715 22 1V19C22 19.5523 21.5523 20 21 20H17C16.4477 20 16 19.5523 16 19V1ZM18 2V18H20V2H18ZM9 6C8.44771 6 8 6.44772 8 7V19C8 19.5523 8.44771 20 9 20H13C13.5523 20 14 19.5523 14 19V7C14 6.44772 13.5523 6 13 6H9ZM12 18H10V8H12V18ZM1 12C0.447715 12 0 12.4477 0 13V19C0 19.5523 0.447715 20 1 20H5C5.55228 20 6 19.5523 6 19V13C6 12.4477 5.55228 12 5 12H1ZM2 18V14H4V18H2Z" fill="white"/>
<path d="M1 22C0.447715 22 0 22.4477 0 23C0 23.5523 0.447715 24 1 24H21C21.5523 24 22 23.5523 22 23C22 22.4477 21.5523 22 21 22H1Z" fill="white"/>
</svg>
