<svg width="24" height="24" viewBox="0 0 24 24" fill="none" xmlns="http://www.w3.org/2000/svg">
<path fill-rule="evenodd" clip-rule="evenodd" d="M6.99796 0.998047C4.80069 0.998047 2.99605 2.80267 2.99605 4.99995C2.99605 5.94068 3.34195 6.79656 3.89253 7.48234C2.19014 8.28133 0.996078 10.0005 0.996078 11.9979C1.025 13.302 2.96713 13.302 2.99605 11.9979C2.99605 10.3186 4.32259 8.9999 6.00187 8.9999H8.00185C9.68113 8.9999 10.9979 10.3186 10.9979 11.9979C10.9979 13.3325 12.9998 13.3325 12.9998 11.9979C12.9998 10.3186 14.3166 8.9999 15.9959 8.9999H17.9959C19.6751 8.9999 21.0017 10.3186 21.0017 11.9979C21.0017 13.3315 23.0017 13.3315 23.0017 11.9979C23.0017 10.0004 21.8078 8.28127 20.1052 7.48234C20.6558 6.79656 21.0017 5.94068 21.0017 4.99995C21.0017 2.80267 19.1971 0.998047 16.9998 0.998047C14.8025 0.998047 12.9998 2.80267 12.9998 4.99995C12.9998 5.9397 13.3429 6.79494 13.8924 7.48039C13.139 7.83363 12.4924 8.37009 11.9998 9.03115C11.5072 8.36963 10.8591 7.83381 10.1053 7.48039C10.6549 6.79494 10.9979 5.9397 10.9979 4.99995C10.9979 2.80267 9.19522 0.998047 6.99796 0.998047ZM6.99796 2.99802C8.11436 2.99802 8.99793 3.88353 8.99793 4.99995C8.99793 6.11633 8.11436 6.99992 6.99796 6.99992C5.88156 6.99992 4.99798 6.11633 4.99798 4.99995C4.99798 3.88353 5.88156 2.99802 6.99796 2.99802ZM16.9998 2.99802C18.1162 2.99802 19.0017 3.88353 19.0017 4.99995C19.0017 6.11633 18.1162 6.99992 16.9998 6.99992C15.8834 6.99992 14.9998 6.11633 14.9998 4.99995C14.9998 3.88353 15.8834 2.99802 16.9998 2.99802ZM6.99796 10.9999C4.80069 10.9999 2.99605 12.8045 2.99605 15.0018C2.99605 15.9431 3.34138 16.8002 3.89253 17.4861C2.19023 18.2851 0.996078 20.0024 0.996078 21.9997C1.025 23.3038 2.96713 23.3038 2.99605 21.9997C2.99605 20.3204 4.32259 19.0017 6.00187 19.0017H8.00185C9.68113 19.0017 10.9979 20.3204 10.9979 21.9997C10.9979 23.3344 12.9998 23.3344 12.9998 21.9997C12.9998 20.3204 14.3166 19.0017 15.9959 19.0017H17.9959C19.6751 19.0017 21.0017 20.3204 21.0017 21.9997C21.0017 23.3334 23.0017 23.3334 23.0017 21.9997C23.0017 20.0023 21.8077 18.2851 20.1052 17.4861C20.6564 16.8002 21.0017 15.9431 21.0017 15.0018C21.0017 12.8045 19.1971 10.9999 16.9998 10.9999C14.8025 10.9999 12.9998 12.8045 12.9998 15.0018C12.9998 15.9421 13.3423 16.7985 13.8924 17.4842C13.139 17.8374 12.4924 18.372 11.9998 19.033C11.5072 18.3715 10.8591 17.8376 10.1053 17.4842C10.6555 16.7985 10.9979 15.9421 10.9979 15.0018C10.9979 12.8045 9.19522 10.9999 6.99796 10.9999ZM6.99796 13.0018C8.11436 13.0018 8.99793 13.8854 8.99793 15.0018C8.99793 16.1182 8.11436 17.0018 6.99796 17.0018C5.88156 17.0018 4.99798 16.1182 4.99798 15.0018C4.99798 13.8854 5.88156 13.0018 6.99796 13.0018ZM16.9998 13.0018C18.1162 13.0018 19.0017 13.8854 19.0017 15.0018C19.0017 16.1182 18.1162 17.0018 16.9998 17.0018C15.8834 17.0018 14.9998 16.1182 14.9998 15.0018C14.9998 13.8854 15.8834 13.0018 16.9998 13.0018Z" fill="white"/>
</svg>
