<svg width="30" height="27" viewBox="0 0 30 27" fill="none" xmlns="http://www.w3.org/2000/svg">
<path d="M18.125 17.0625C20.75 15.0625 24.6875 12 24.6875 0.874977V0H5.25002V0.874977C5.25002 12.0625 9.18752 15.0625 11.8125 17.0625C13.3125 18.25 14.0625 18.875 14.0625 20.25V22.9375C12.625 23.0625 11.25 23.625 10.75 24.6875H8.75002C7.75002 24.6875 7.00002 25.5 7.00002 26.4375H22.875C22.875 25.4375 22.0625 24.6875 21.125 24.6875H19.125C18.625 23.625 17.25 23.125 15.8125 22.9375V20.25C15.875 18.8125 16.625 18.1875 18.125 17.0625ZM15 17.5625C14.4375 16.8125 13.6875 16.25 12.9375 15.6875C10.5625 13.8125 7.25002 11.3125 7.06252 1.74999H22.9375C22.75 11.3125 19.5 13.8125 17.0625 15.6875C16.3125 16.25 15.5625 16.8125 15 17.5625Z" fill="white"/>
<path d="M9.5625 14.9375C9.4375 14.9375 0 12.9375 0 2.625V1.75002H6.1875V3.50002H1.8125C2.3125 11.625 9.8125 13.1875 9.875 13.25L9.5625 14.9375ZM20.4375 14.9375L20.0625 13.1875C20.375 13.125 27.625 11.5625 28.125 3.43753H23.75V1.6875H30V2.56252C30 12.9375 20.5625 14.9375 20.4375 14.9375Z" fill="white"/>
</svg>
