<svg width="13" height="13" viewBox="0 0 13 13" fill="none" xmlns="http://www.w3.org/2000/svg">
<path d="M12.8705 3.9001C12.8705 3.9001 12.7436 3.00381 12.3525 2.61025C11.8574 2.09229 11.3039 2.08975 11.05 2.05928C9.23203 1.92725 6.50254 1.92725 6.50254 1.92725H6.49746C6.49746 1.92725 3.76797 1.92725 1.95 2.05928C1.69609 2.08975 1.14258 2.09229 0.647461 2.61025C0.256445 3.00381 0.132031 3.9001 0.132031 3.9001C0.132031 3.9001 0 4.95381 0 6.00498V6.99014C0 8.04131 0.129492 9.09502 0.129492 9.09502C0.129492 9.09502 0.256445 9.99131 0.644922 10.3849C1.14004 10.9028 1.79004 10.8851 2.07949 10.9409C3.12051 11.0399 6.5 11.0704 6.5 11.0704C6.5 11.0704 9.23203 11.0653 11.05 10.9358C11.3039 10.9054 11.8574 10.9028 12.3525 10.3849C12.7436 9.99131 12.8705 9.09502 12.8705 9.09502C12.8705 9.09502 13 8.04385 13 6.99014V6.00498C13 4.95381 12.8705 3.9001 12.8705 3.9001ZM5.15684 8.18604V4.53232L8.66836 6.36553L5.15684 8.18604Z" fill="white"/>
</svg>
