<svg width="13" height="13" viewBox="0 0 13 13" fill="none" xmlns="http://www.w3.org/2000/svg">
<g clip-path="url(#clip0_201_249)">
<path fill-rule="evenodd" clip-rule="evenodd" d="M9.12347 3.54671C8.45233 2.90662 7.55669 2.55791 6.62999 2.57224C4.93424 2.57224 3.49405 3.71627 2.98054 5.25677C2.70827 6.06405 2.70826 6.93823 2.98054 7.7455H2.98292C3.49881 9.28363 4.93663 10.4277 6.63238 10.4277C7.50773 10.4277 8.25922 10.2038 8.84165 9.8083V9.8067C9.52712 9.3529 9.99524 8.63877 10.1409 7.8315H6.63V5.32847H12.761C12.8374 5.76316 12.8733 6.2074 12.8733 6.64925C12.8733 8.62625 12.1667 10.2977 10.9374 11.4298L10.9386 11.4308C9.86148 12.4244 8.38307 13 6.62999 13C4.17234 13 1.92487 11.6147 0.821431 9.41976C-0.10048 7.5831 -0.100478 5.41922 0.821437 3.58255C1.92487 1.38523 4.17234 -5.02538e-05 6.62999 -5.02538e-05C8.24454 -0.0191574 9.80416 0.587493 10.9792 1.69093L9.12347 3.54671Z" fill="white"/>
</g>
<defs>
<clipPath id="clip0_201_249">
<rect width="13" height="13" fill="white"/>
</clipPath>
</defs>
</svg>
