<svg width="13" height="13" viewBox="0 0 13 13" fill="none" xmlns="http://www.w3.org/2000/svg">
<g clip-path="url(#clip0_201_247)">
<path d="M4.08967 11.7811C8.99412 11.7811 11.6774 7.71687 11.6774 4.19342C11.6774 4.07916 11.6749 3.96236 11.6698 3.8481C12.1918 3.47062 12.6422 3.00305 13 2.46736C12.5139 2.68365 11.9977 2.82491 11.4692 2.88631C12.0257 2.55273 12.4424 2.02871 12.642 1.41137C12.1185 1.72163 11.5459 1.94049 10.9489 2.05857C10.5467 1.63117 10.0149 1.34818 9.43566 1.25335C8.85646 1.15853 8.26215 1.25714 7.74461 1.53396C7.22707 1.81078 6.81514 2.25037 6.5725 2.78479C6.32986 3.3192 6.27002 3.91866 6.40225 4.49049C5.34218 4.43729 4.30513 4.16191 3.35832 3.68221C2.41151 3.20251 1.57608 2.52919 0.906191 1.7059C0.565716 2.29292 0.461531 2.98755 0.614808 3.64862C0.768086 4.3097 1.16733 4.88761 1.73139 5.2649C1.30792 5.25146 0.893737 5.13744 0.523047 4.93228V4.96529C0.522668 5.58132 0.735636 6.17848 1.12575 6.65524C1.51587 7.13201 2.05905 7.45896 2.66297 7.58053C2.2707 7.68785 1.85899 7.70349 1.45971 7.62623C1.63012 8.15602 1.96169 8.61939 2.40813 8.95167C2.85457 9.28395 3.39361 9.46856 3.95002 9.47974C3.0054 10.2218 1.83851 10.6242 0.637305 10.6223C0.424281 10.622 0.211466 10.6089 0 10.5832C1.2203 11.3661 2.63983 11.7819 4.08967 11.7811Z" fill="white"/>
</g>
<defs>
<clipPath id="clip0_201_247">
<rect width="13" height="13" fill="white"/>
</clipPath>
</defs>
</svg>
